<?xml version="1.0" encoding="iso-8859-1"?>
<!-- Generator: Adobe Illustrator 18.0.0, SVG Export Plug-In . SVG Version: 6.00 Build 0)  -->
<!DOCTYPE svg PUBLIC "-//W3C//DTD SVG 1.1//EN" "http://www.w3.org/Graphics/SVG/1.1/DTD/svg11.dtd">
<svg version="1.1" id="Capa_1" xmlns="http://www.w3.org/2000/svg" xmlns:xlink="http://www.w3.org/1999/xlink" x="0px" y="0px"
	 viewBox="0 0 390.94 390.94" style="enable-background:new 0 0 390.94 390.94;" xml:space="preserve" fill="#1877F2">
<g>
	<g>
		<path d="M386.732,310.829l-83.191-83.189c-0.991-0.982-24.723-24.25-62.719-40.922l-0.221-0.098
			c-28.181-12.357-60.571-41.119-73.395-53.117c0.082-0.736,0.107-1.479,0.074-2.219c-0.183-4.031-2.068-7.826-5.174-10.412
			l-8.443-7.023c-2.591-2.158-5.863-3.346-9.216-3.346c-3.836,0-7.45,1.502-10.175,4.229l-19.541,19.541
			c-5.297,5.297-5.678,13.633-0.887,19.387l7.028,8.445c2.582,3.102,6.374,4.988,10.426,5.178c0.743,0.031,1.484,0.008,2.214-0.074
			c12.025,12.848,40.766,45.219,53.15,73.482c16.643,37.965,40.005,61.857,41.024,62.889l83.149,83.152
			c2.72,2.715,6.334,4.209,10.178,4.209c3.845,0,7.458-1.494,10.178-4.213l55.535-55.535
			C392.337,325.584,392.343,316.454,386.732,310.829z M297.104,242.416l41.293,41.293l-54.683,54.68L242.423,297.1L297.104,242.416z
			 M141.204,153.512c-2.375-2.525-6.152-3.082-9.135-1.404l-6.341-7.619l18.761-18.76l7.621,6.34
			c-1.675,2.984-1.119,6.764,1.413,9.137l0.517,0.492c13.417,12.814,47.761,43.869,79.37,58.129l-1.304,32.275l-32.278,1.305
			c-14.299-31.68-45.344-65.998-58.158-79.406L141.204,153.512z M206.889,248.133l32.735-1.322c3.904-0.158,7.033-3.287,7.191-7.191
			l1.323-32.738c17.551,9.207,30.625,19.115,37.995,25.293l-53.947,53.947C225.992,278.721,216.077,265.631,206.889,248.133z
			 M321.014,375.694l-16.156-16.158c-0.032-0.033-0.064-0.064-0.098-0.096c-0.039-0.041-0.078-0.082-0.117-0.121l-10.32-10.322
			l54.683-54.68l26.692,26.691L321.014,375.694z"/>
		<path d="M114.024,103.413L76.181,65.569c-2.93-2.928-7.678-2.928-10.607,0c-2.929,2.93-2.929,7.678,0,10.607l37.844,37.844
			c1.465,1.465,3.385,2.197,5.304,2.197s3.839-0.732,5.304-2.197C116.953,111.09,116.953,106.342,114.024,103.413z"/>
		<path d="M36.527,64.262c1.925,0,3.846-0.738,5.304-2.195l20.237-20.234c2.774-2.774,2.942-7.217,0.385-10.193L37.504,2.612
			c-1.36-1.584-3.319-2.527-5.405-2.607c-2.073-0.07-4.11,0.717-5.586,2.193L2.199,26.512c-1.476,1.476-2.27,3.5-2.191,5.586
			c0.079,2.086,1.023,4.045,2.606,5.404L31.64,62.45C33.051,63.663,34.791,64.262,36.527,64.262z M31.4,18.522l15.143,17.621
			l-10.4,10.399L18.525,31.399L31.4,18.522z"/>
		<path d="M127.318,96.987c1.86,0,3.725-0.688,5.177-2.074c2.997-2.859,3.107-7.607,0.248-10.604
			c-11.599-12.154-11.148-31.48,1.005-43.08c2.996-2.859,3.106-7.608,0.247-10.604c-2.861-2.998-7.607-3.106-10.605-0.248
			c-18.135,17.311-18.808,46.15-1.499,64.287C123.365,96.209,125.34,96.987,127.318,96.987z"/>
		<path d="M30.382,123.387c-2.86,2.996-2.75,7.744,0.246,10.604c1.453,1.387,3.316,2.076,5.178,2.076
			c1.977,0,3.953-0.777,5.426-2.322c11.602-12.156,30.929-12.604,43.08-1.006c2.997,2.861,7.745,2.752,10.604-0.246
			c2.86-2.996,2.75-7.744-0.246-10.603C76.534,104.579,47.694,105.25,30.382,123.387z"/>
	</g>
</g>
<g>
</g>
<g>
</g>
<g>
</g>
<g>
</g>
<g>
</g>
<g>
</g>
<g>
</g>
<g>
</g>
<g>
</g>
<g>
</g>
<g>
</g>
<g>
</g>
<g>
</g>
<g>
</g>
<g>
</g>
</svg>
